<svg width="644" height="101" viewBox="0 0 644 101" fill="none" xmlns="http://www.w3.org/2000/svg">
<g clip-path="url(#clip0_3_49)">
<path d="M240.856 37.8565H252.563C252.563 37.8565 254.257 15.2313 229.001 15.2313C203.744 15.2313 203.892 35.4165 203.892 35.4165C203.892 35.4165 203.008 56.3411 228.264 56.3411C228.264 56.3411 247.115 59.6684 250.944 75.2694C250.944 75.2694 253.963 70.981 253.963 64.918C253.963 58.855 251.385 48.5776 234.67 45.3243C217.956 42.071 215.378 38.6698 215.378 34.2335C215.378 29.7972 220.975 25.8045 229.001 25.8045C237.027 25.8045 240.856 31.8675 240.856 37.8565Z" fill="#F1F1F1"/>
<path d="M118.992 78.9663C116.783 76.896 114.574 74.8258 111.923 73.4209C109.199 71.9422 106.401 70.7591 103.234 70.7591C91.0848 70.6852 78.9353 70.6113 66.7857 70.7591C60.9687 70.8331 56.1825 73.6427 52.1326 77.7833C46.3892 83.5505 41.2348 89.8353 35.3442 95.3807C32.2515 98.2643 28.7171 99.8909 24.4464 100.63C21.2065 101.222 18.0402 100.926 15.0949 100.187C11.045 99.2255 7.6579 96.7116 4.93345 93.3843C2.65081 90.6486 1.17813 87.6171 0.368163 84.0681C-0.368174 80.519 -5.4203e-06 77.1918 0.736331 73.9385C1.3254 71.3506 2.65081 68.9107 3.75531 66.3968C5.59615 62.2562 7.51063 58.1157 9.4251 53.9012C12.0759 48.134 14.7267 42.2928 17.3039 36.5256C19.6602 31.276 21.7956 25.9524 24.2255 20.7028C26.729 15.1574 28.7171 9.16836 33.7978 5.24962C37.185 2.58783 40.8667 0.591495 45.432 0.36968C47.8619 0.295741 50.2918 -0.0739514 52.7217 -1.29221e-05C53.8262 -1.29221e-05 54.4889 -1.29165e-05 53.7526 1.62663C51.249 7.17202 50.0709 13.161 50.8072 19.224C51.4699 24.7694 53.1635 29.9451 56.3297 34.6771C59.8642 39.9268 64.3558 43.9934 70.0256 46.7291C72.6764 48.06 75.5481 48.8733 78.4935 49.4648C81.8806 50.2042 85.1941 49.9085 88.5077 50.0564C90.4958 50.1303 91.8212 51.8309 93.4411 52.866C101.173 57.8938 108.904 62.9217 116.562 67.8755C117.298 68.3192 117.887 68.9846 118.697 69.3543C120.097 70.0198 120.906 70.6852 120.17 72.7555C119.507 74.6039 118.992 76.7482 118.992 78.9663Z" fill="#F1F1F1"/>
<path d="M119.139 -1.1161e-05C127.165 -0.147888 134.087 2.21814 139.241 8.72473C141.524 11.5344 142.776 14.9356 144.248 18.1889C147.046 24.4736 149.918 30.7584 152.79 37.0432C154.852 41.5534 156.84 46.1376 158.828 50.6479C158.975 51.0176 159.491 51.683 159.049 52.0527C158.607 52.4224 158.165 51.9048 157.723 51.7569C156.251 51.4612 154.925 50.8697 153.379 50.6479C150.139 50.2042 146.973 50.2042 143.733 50.6479C143.365 50.7218 142.923 50.5739 142.628 50.7218C139.904 52.2745 138.799 50.7218 137.474 48.5776C132.246 40.2965 126.724 32.0893 121.422 23.8821C121.201 23.5124 120.906 23.2906 120.686 22.9209C119.507 21.0725 118.771 19.3719 118.992 16.858C119.434 11.5344 118.035 6.28476 115.973 1.40482C115.384 0.147866 115.678 -0.0739497 116.783 -0.147888C117.519 -1.1161e-05 118.329 -1.1161e-05 119.139 -1.1161e-05Z" fill="#F1F1F1"/>
<path d="M148.666 58.855C159.049 57.7459 169.578 67.7276 169.505 79.8536C169.505 91.9055 159.049 101 148.74 101C136.738 101 127.386 91.5358 127.313 79.7057C127.239 69.2064 136.296 57.9678 148.666 58.855ZM148.519 94.5673C156.913 94.937 163.319 87.6171 163.319 80.0014C163.319 71.5724 156.619 64.9919 148.519 64.918C140.788 64.844 133.792 71.4246 133.792 79.7796C133.792 87.691 140.198 95.011 148.519 94.5673Z" fill="#72B3E4"/>
<path d="M58.7597 15.0834C58.7597 10.3514 60.3796 5.6193 63.1777 1.18299C63.6931 0.369667 64.2822 0.369667 65.0185 0.591483C65.2394 0.665421 65.4603 0.961175 65.6812 1.18299C69.2157 3.54902 69.142 3.47508 67.3012 7.09807C64.5767 12.3477 64.5767 17.6713 66.6385 23.2167C68.332 27.8008 71.5719 30.9063 75.6954 33.2723C80.3343 35.9341 85.1942 35.9341 90.2012 34.7511C96.0183 33.3462 99.9945 29.5754 102.572 24.3997C104.56 20.407 105.149 16.1925 103.971 11.6823C103.308 9.24229 102.572 6.87626 101.025 4.87992C100.657 4.36235 100.51 3.6969 101.099 3.17933C102.13 2.29207 103.234 1.47874 104.413 0.73936C105.443 0.0739131 106.253 0.73936 106.695 1.47874C108.315 4.28841 109.788 7.09807 110.156 10.4253C110.671 14.7137 110.892 18.9282 109.788 23.1427C108.389 28.3924 105.517 32.6808 101.32 36.082C98.0064 38.7437 94.2511 40.5183 89.9803 41.4055C85.9305 42.2189 81.9543 42.1449 78.0517 41.0358C71.9401 39.2613 66.8594 35.8601 63.325 30.3887C61.4841 27.579 60.1587 24.5476 59.496 21.2203C58.9806 19.3719 58.8333 17.5234 58.7597 15.0834Z" fill="#72B3E4"/>
<path d="M280.912 15.2313H334.739V26.8397H314.048V86.0644H301.53V26.6918H280.912V15.2313Z" fill="#F1F1F1"/>
<path d="M411.907 15.2313H362.13V26.6918H411.907V15.2313Z" fill="#F1F1F1"/>
<path d="M411.907 44.9546H362.13V56.4151H411.907V44.9546Z" fill="#F1F1F1"/>
<path d="M411.907 74.6039H362.13V86.0644H411.907V74.6039Z" fill="#F1F1F1"/>
<path d="M440.108 86.0644H452.479L473.612 31.5717L484.436 59.5205H474.79L469.93 71.5725H489.148L494.892 86.0644H507.851L480.018 15.2313H467.206L440.108 86.0644Z" fill="#F1F1F1"/>
<path d="M535.538 15.2313V86.0644H547.098V31.7196L569.041 53.8272L607.699 15.0095H589.953L568.82 36.2299L547.54 14.9356L535.538 15.2313Z" fill="#F1F1F1"/>
<path d="M602.618 36.008V86.0644H590.247V47.7642L602.618 36.008Z" fill="#F1F1F1"/>
<path d="M634.354 86.6559C629.052 86.6559 624.708 82.2935 624.708 76.97C624.708 71.6464 629.052 67.284 634.354 67.284C639.656 67.284 644 71.6464 644 76.97C644 82.2935 639.729 86.6559 634.354 86.6559ZM634.354 70.7591C630.967 70.7591 628.169 73.5688 628.169 76.97C628.169 80.3711 630.967 83.1808 634.354 83.1808C637.741 83.1808 640.539 80.3711 640.539 76.97C640.539 73.5688 637.815 70.7591 634.354 70.7591Z" fill="#72B3E4"/>
</g>
<defs>
<clipPath id="clip0_3_49">
<rect width="644" height="101" fill="white"/>
</clipPath>
</defs>
</svg>
